<?xml version="1.0" standalone="no"?>
<!DOCTYPE svg PUBLIC "-//W3C//DTD SVG 20010904//EN"
 "http://www.w3.org/TR/2001/REC-SVG-20010904/DTD/svg10.dtd">
<svg version="1.0" xmlns="http://www.w3.org/2000/svg"
 width="512.000000pt" height="512.000000pt" viewBox="0 0 512.000000 512.000000"
 preserveAspectRatio="xMidYMid meet">

<g transform="translate(0.000000,512.000000) scale(0.100000,-0.100000)"
fill="#000000" stroke="none">
<path d="M2271 5103 c-13 -11 -51 -95 -96 -212 -41 -106 -76 -194 -77 -195 -2
-2 -50 -15 -108 -30 -181 -47 -349 -120 -576 -247 l-41 -23 -197 88 c-179 79
-200 87 -225 76 -35 -14 -386 -367 -395 -397 -5 -17 17 -76 80 -219 l88 -197
-23 -41 c-127 -227 -200 -395 -247 -576 -15 -58 -28 -106 -30 -108 -1 -1 -89
-36 -195 -77 -117 -45 -201 -83 -211 -96 -16 -19 -18 -49 -18 -289 0 -240 2
-270 18 -289 10 -13 94 -51 211 -96 106 -41 194 -76 195 -77 2 -2 15 -50 30
-108 47 -181 120 -349 247 -576 l23 -41 -88 -197 c-63 -143 -85 -202 -80 -219
9 -30 360 -383 395 -397 25 -11 46 -4 221 74 106 47 197 86 201 86 4 0 60 -29
124 -64 147 -82 329 -157 480 -198 65 -18 119 -33 121 -34 1 -1 36 -89 77
-195 45 -117 83 -201 96 -211 19 -16 49 -18 289 -18 240 0 270 2 289 18 20 16
191 441 191 475 0 8 -8 25 -18 38 -22 26 -75 31 -98 8 -8 -8 -47 -100 -87
-205 l-73 -189 -204 0 -204 0 -72 188 c-40 104 -78 195 -84 202 -6 8 -46 22
-88 31 -199 43 -449 145 -619 252 -46 29 -94 52 -108 52 -13 0 -106 -36 -205
-80 -99 -44 -184 -80 -188 -80 -9 0 -282 273 -282 282 0 4 36 89 80 188 44 99
80 191 80 204 0 14 -23 62 -52 108 -108 174 -209 422 -252 620 -9 42 -23 82
-31 88 -7 6 -98 44 -202 84 l-188 72 0 204 0 204 188 72 c104 40 195 78 202
84 8 6 22 46 31 88 43 198 144 446 252 620 29 46 52 94 52 108 0 13 -36 105
-80 204 -44 99 -80 184 -80 188 0 9 273 282 282 282 4 0 89 -36 188 -80 99
-44 191 -80 204 -80 14 0 62 23 108 52 174 108 422 209 620 252 42 9 82 23 88
31 6 7 44 98 84 202 l72 188 204 0 204 0 73 -189 c40 -105 79 -197 87 -205 23
-23 76 -18 98 8 10 13 18 31 18 40 0 34 -170 456 -191 474 -19 15 -49 17 -289
17 -240 0 -270 -2 -289 -17z"/>
<path d="M3585 4823 c-181 -65 -266 -274 -181 -448 33 -66 102 -129 168 -152
l48 -18 0 -110 0 -110 -228 -228 -227 -227 -268 0 -267 0 0 259 c0 250 -1 259
-22 286 l-22 28 -112 -6 c-279 -15 -547 -107 -789 -270 -118 -80 -312 -274
-392 -392 -120 -178 -199 -364 -244 -575 -33 -152 -33 -448 0 -600 44 -208
126 -400 244 -575 80 -118 274 -312 392 -392 241 -162 511 -255 789 -270 l112
-6 22 28 c21 27 22 36 22 286 l0 259 268 0 267 0 228 -228 227 -227 0 -110 0
-110 -48 -18 c-67 -23 -135 -86 -169 -155 -24 -49 -28 -69 -28 -142 1 -100 24
-160 90 -226 66 -66 125 -89 225 -89 73 0 93 4 142 28 62 30 115 83 150 149
19 36 23 58 23 138 0 87 -3 100 -30 149 -37 67 -104 126 -167 148 l-48 18 0
139 0 140 -263 263 -262 263 -303 0 -302 0 0 160 0 160 336 0 337 0 142 -140
142 -140 110 0 110 0 13 -39 c21 -66 79 -131 150 -170 61 -33 71 -36 150 -35
104 0 161 24 232 96 65 67 91 139 86 238 -7 119 -67 212 -173 268 -44 24 -61
27 -145 27 -87 0 -100 -3 -149 -30 -67 -37 -126 -104 -148 -167 l-18 -48 -85
0 -85 0 -137 138 -138 137 -365 3 -365 3 0 154 0 155 930 0 c879 0 930 -1 930
-17 0 -10 13 -41 30 -69 126 -221 436 -218 559 6 33 61 36 71 35 150 0 69 -5
94 -24 135 -93 191 -340 245 -499 109 -44 -38 -101 -126 -101 -156 0 -17 -51
-18 -930 -18 l-930 0 0 155 0 155 352 0 351 0 167 165 167 165 66 0 66 0 27
-60 c31 -70 102 -141 172 -173 70 -32 179 -30 254 5 66 31 128 91 160 156 19
39 23 63 23 137 0 78 -4 97 -27 141 -127 242 -468 234 -580 -13 l-28 -63 -98
0 -97 0 -160 -160 -160 -160 -327 0 -328 0 0 160 0 160 302 0 302 0 263 263
263 263 0 140 0 139 48 18 c27 9 69 34 93 56 134 117 146 321 28 454 -81 92
-229 131 -344 90z m172 -134 c34 -13 80 -55 99 -91 22 -42 18 -124 -8 -170
-43 -76 -161 -113 -236 -74 -170 89 -115 344 75 346 23 0 54 -5 70 -11z
m-1267 -2129 l0 -1400 -22 0 c-51 0 -219 31 -303 55 -49 14 -141 50 -202 80
-405 194 -685 551 -780 995 -25 120 -25 420 0 540 111 520 487 930 984 1075
88 26 229 52 291 54 l32 1 0 -1400z m1734 922 c58 -40 78 -84 74 -158 -3 -49
-10 -69 -32 -99 -51 -67 -138 -91 -213 -60 -72 30 -113 93 -113 170 0 148 163
233 284 147z m655 -760 c19 -9 48 -34 65 -55 28 -35 31 -46 31 -107 0 -61 -3
-72 -31 -107 -39 -49 -87 -73 -148 -73 -180 0 -246 243 -91 336 49 29 124 32
174 6z m-667 -733 c77 -39 112 -157 70 -238 -82 -162 -325 -116 -340 64 -12
151 131 243 270 174z m-428 -1233 c55 -32 86 -89 86 -155 0 -58 -15 -93 -57
-133 -114 -108 -303 -26 -303 132 0 50 15 88 48 124 57 61 154 74 226 32z"/>
<path d="M1970 3415 c-136 -91 -264 -239 -339 -391 -77 -158 -105 -280 -105
-464 0 -184 28 -306 105 -464 76 -153 205 -301 340 -392 76 -50 100 -54 134
-19 46 45 35 68 -69 144 -178 129 -294 300 -352 517 -26 97 -26 331 0 428 58
217 174 388 352 517 104 76 115 99 69 144 -34 35 -60 31 -135 -20z"/>
</g>
</svg>
