<?xml version="1.0" standalone="no"?>
<!DOCTYPE svg PUBLIC "-//W3C//DTD SVG 20010904//EN"
 "http://www.w3.org/TR/2001/REC-SVG-20010904/DTD/svg10.dtd">
<svg version="1.0" xmlns="http://www.w3.org/2000/svg"
 width="512.000000pt" height="512.000000pt" viewBox="0 0 512.000000 512.000000"
 preserveAspectRatio="xMidYMid meet">

<g transform="translate(0.000000,512.000000) scale(0.100000,-0.100000)"
fill="#000000" stroke="none">
<path d="M328 4613 c-147 -55 -238 -196 -225 -349 9 -119 79 -223 189 -281 48
-25 63 -28 153 -28 105 0 140 11 217 68 38 28 94 113 109 165 l12 42 372 0
372 0 162 -281 c125 -216 160 -284 149 -290 -28 -19 -262 -89 -394 -119 -83
-18 -146 -38 -156 -48 -28 -28 -51 -344 -46 -634 l4 -238 -233 0 c-205 0 -233
2 -233 16 0 30 -51 123 -90 163 -22 22 -63 53 -92 68 -48 25 -63 28 -153 28
-86 0 -107 -4 -150 -25 -67 -33 -131 -99 -163 -168 -37 -77 -38 -202 -4 -276
34 -75 84 -129 154 -167 60 -32 68 -34 163 -34 105 0 140 11 217 68 38 28 94
113 109 165 l12 42 241 0 241 0 23 -120 c64 -343 217 -650 435 -876 l99 -103
-148 -256 -147 -255 -374 0 c-331 0 -373 2 -373 16 0 30 -51 123 -90 163 -22
22 -63 53 -92 68 -48 25 -63 28 -153 28 -86 0 -107 -4 -150 -25 -67 -33 -131
-99 -163 -168 -23 -48 -27 -71 -27 -142 0 -71 4 -94 27 -142 32 -69 96 -135
163 -168 43 -21 64 -25 150 -25 90 0 105 3 153 28 29 15 70 46 92 68 39 40 90
133 90 163 0 14 44 16 399 16 366 0 400 1 419 18 11 9 84 130 162 267 79 138
147 254 151 259 4 5 49 -19 101 -53 106 -71 331 -184 461 -232 l87 -32 88 32
c129 48 355 162 457 230 50 34 93 61 96 61 3 0 75 -119 159 -265 84 -146 161
-270 171 -275 10 -6 180 -10 413 -10 352 0 396 -2 396 -16 0 -31 52 -123 92
-164 23 -23 65 -54 93 -68 44 -24 61 -27 150 -27 95 0 103 2 163 34 70 38 120
92 154 167 34 74 33 199 -3 275 -33 69 -91 129 -161 166 -48 25 -63 28 -153
28 -89 0 -106 -3 -150 -27 -28 -14 -70 -45 -93 -68 -40 -41 -92 -133 -92 -164
0 -14 -42 -16 -373 -16 l-374 0 -147 255 -148 256 99 103 c218 226 371 533
435 876 l23 120 243 0 c213 0 242 -2 242 -16 0 -31 52 -123 92 -164 23 -23 65
-54 93 -68 44 -24 61 -27 150 -27 90 0 105 3 153 28 70 37 128 97 161 166 22
47 26 70 26 141 0 71 -4 94 -27 142 -32 69 -96 135 -163 168 -43 21 -64 25
-150 25 -90 0 -105 -3 -153 -28 -29 -15 -70 -46 -92 -68 -39 -40 -90 -133 -90
-163 0 -14 -28 -16 -233 -16 l-233 0 4 238 c5 290 -18 606 -46 634 -10 10 -73
30 -156 48 -132 30 -366 100 -394 119 -11 6 24 74 149 290 l162 281 374 0
c331 0 373 -2 373 -16 0 -31 52 -123 92 -164 23 -23 65 -54 93 -68 44 -24 61
-27 150 -27 90 0 105 3 153 28 70 37 128 97 161 166 22 47 26 70 26 141 0 71
-4 94 -27 142 -32 69 -96 135 -163 168 -43 21 -64 25 -150 25 -89 0 -105 -3
-150 -27 -28 -14 -70 -45 -92 -68 -43 -42 -93 -130 -93 -162 0 -17 -21 -18
-396 -18 -231 0 -403 -4 -413 -10 -10 -5 -98 -148 -197 -319 l-178 -309 -61
30 c-153 77 -256 150 -444 316 -40 34 -80 62 -91 62 -11 0 -52 -28 -91 -62
-196 -172 -282 -234 -425 -306 l-80 -40 -179 309 c-98 171 -186 314 -196 319
-10 6 -180 10 -412 10 l-394 0 -12 43 c-15 51 -71 136 -109 164 -68 50 -115
67 -202 70 -63 2 -97 -1 -132 -14z m241 -137 c64 -45 96 -106 96 -186 0 -87
-34 -147 -108 -191 -47 -27 -59 -30 -123 -27 -87 4 -139 34 -180 104 -65 111
-25 256 87 313 66 33 170 27 228 -13z m4232 -1 c56 -40 99 -120 99 -185 0 -65
-43 -145 -99 -185 -39 -27 -50 -30 -124 -30 -74 0 -86 3 -125 29 -129 88 -132
283 -5 368 54 36 59 38 140 35 61 -2 78 -7 114 -32z m-2170 -559 c131 -122
275 -217 464 -307 182 -86 319 -131 610 -198 29 -7 30 -10 39 -77 14 -116 13
-667 -2 -774 -32 -232 -95 -447 -179 -614 -77 -154 -149 -253 -278 -381 -127
-128 -235 -208 -395 -293 -109 -59 -303 -142 -330 -142 -27 0 -221 83 -330
142 -143 76 -264 163 -373 268 -264 252 -412 568 -479 1015 -15 102 -16 663
-2 780 l9 69 123 28 c250 55 528 167 727 291 94 58 229 163 279 216 17 17 36
31 44 31 8 0 41 -24 73 -54z m-2062 -1170 c64 -45 96 -106 96 -186 0 -80 -32
-142 -97 -186 -39 -26 -51 -29 -124 -29 -71 0 -85 3 -122 27 -78 52 -120 167
-93 251 19 56 65 112 112 136 66 33 170 27 228 -13z m4232 -1 c56 -40 99 -120
99 -185 0 -65 -43 -145 -99 -185 -39 -27 -50 -30 -125 -30 -75 0 -87 3 -125
29 -128 89 -130 283 -4 368 54 36 59 38 140 35 61 -2 78 -7 114 -32z m-4233
-1730 c65 -43 97 -105 97 -185 0 -80 -32 -141 -96 -186 -38 -26 -50 -29 -124
-29 -72 0 -86 3 -123 27 -78 52 -120 167 -93 251 19 56 65 112 112 136 65 33
167 26 227 -14z m4233 0 c56 -40 99 -120 99 -185 0 -65 -43 -145 -99 -185 -39
-27 -50 -30 -125 -30 -75 0 -87 3 -125 29 -64 45 -96 106 -96 186 0 87 34 147
108 191 47 27 59 30 124 27 61 -3 78 -8 114 -33z"/>
<path d="M2469 3694 c-221 -166 -479 -290 -792 -380 -67 -19 -128 -41 -136
-49 -23 -23 -36 -308 -23 -510 47 -702 308 -1118 874 -1390 81 -39 149 -65
168 -65 45 0 280 115 404 197 121 80 299 254 370 362 136 205 217 442 258 751
7 55 12 201 12 350 -1 298 -3 307 -74 328 -400 118 -629 223 -860 392 -52 39
-102 70 -110 70 -9 0 -50 -25 -91 -56z m198 -158 c217 -148 490 -271 769 -345
l42 -11 7 -144 c4 -88 3 -203 -4 -296 -34 -434 -146 -729 -367 -959 -127 -133
-268 -230 -472 -325 l-84 -39 -151 76 c-360 180 -570 419 -686 780 -64 201
-100 518 -86 770 l7 137 42 10 c287 74 627 233 831 389 22 17 41 31 42 31 1 0
51 -33 110 -74z"/>
<path d="M2720 2605 c-151 -151 -279 -275 -285 -275 -6 0 -78 68 -160 150
-120 120 -155 150 -177 150 -34 0 -63 -39 -55 -72 4 -13 87 -103 185 -200 149
-149 183 -178 207 -178 25 0 74 45 337 308 324 323 334 336 290 375 -42 39
-55 29 -342 -258z"/>
</g>
</svg>
