<?xml version="1.0" standalone="no"?>
<!DOCTYPE svg PUBLIC "-//W3C//DTD SVG 20010904//EN"
 "http://www.w3.org/TR/2001/REC-SVG-20010904/DTD/svg10.dtd">
<svg version="1.0" xmlns="http://www.w3.org/2000/svg"
 width="512.000000pt" height="512.000000pt" viewBox="0 0 512.000000 512.000000"
 preserveAspectRatio="xMidYMid meet">

<g transform="translate(0.000000,512.000000) scale(0.100000,-0.100000)"
fill="#000000" stroke="none">
<path d="M2435 5061 c-84 -24 -145 -63 -209 -131 -128 -139 -159 -327 -81
-498 14 -31 40 -74 56 -95 17 -21 29 -39 28 -41 -2 -1 -33 -13 -69 -25 -36
-13 -83 -33 -106 -46 l-41 -22 -52 53 c-32 33 -80 67 -129 91 -42 21 -79 39
-81 40 -2 1 6 17 17 35 104 169 36 391 -147 479 -67 33 -196 33 -266 1 -68
-31 -132 -95 -166 -167 -24 -49 -29 -73 -29 -132 0 -75 27 -170 55 -193 23
-19 18 -26 -23 -38 -53 -16 -150 -81 -191 -127 -19 -22 -45 -64 -59 -95 -23
-49 -26 -71 -30 -197 -3 -78 -2 -153 2 -167 14 -58 2 -56 437 -56 l399 0 0
-164 c0 -159 1 -165 22 -180 20 -14 111 -16 788 -16 677 0 768 2 788 16 21 15
22 21 22 180 l0 164 398 0 c329 0 402 2 418 14 17 13 19 28 19 183 0 160 -1
171 -26 223 -14 31 -41 73 -60 95 -41 46 -138 111 -191 127 -41 12 -46 19 -23
38 28 23 55 118 55 193 0 89 -35 170 -101 234 -68 65 -127 88 -229 88 -77 -1
-91 -4 -148 -34 -118 -64 -176 -162 -177 -296 0 -70 4 -88 33 -144 18 -35 31
-65 30 -65 -2 -1 -38 -18 -80 -39 -49 -24 -97 -58 -129 -91 l-52 -53 -41 22
c-23 13 -70 33 -106 46 -36 12 -67 24 -69 25 -1 2 11 20 28 41 43 54 81 142
93 220 14 82 0 180 -38 260 -33 69 -128 171 -192 206 -104 57 -234 71 -347 38z
m257 -129 c66 -29 143 -104 175 -171 22 -46 27 -70 27 -136 1 -67 -4 -90 -27
-141 -79 -171 -276 -246 -443 -170 -76 34 -134 93 -171 171 -36 78 -38 193 -5
267 39 87 126 165 215 194 58 19 170 12 229 -14z m-1141 -133 c106 -36 168
-150 139 -257 -47 -177 -301 -205 -387 -43 -25 48 -31 129 -12 178 36 96 161
155 260 122z m2164 -8 c43 -19 100 -78 116 -118 17 -46 11 -127 -14 -174 -67
-126 -244 -147 -341 -39 -60 66 -71 143 -32 226 49 105 169 152 271 105z
m-2257 -517 c40 -4 83 -2 117 6 44 11 63 11 102 0 74 -20 154 -64 197 -109
l39 -40 -47 -52 c-55 -61 -73 -92 -97 -169 l-17 -55 -362 -3 -363 -2 5 112 c5
128 21 173 83 226 65 58 185 105 245 97 19 -3 63 -8 98 -11z m2145 0 c34 -4
83 -1 116 6 50 10 67 10 117 -5 113 -33 189 -86 226 -159 17 -32 22 -65 26
-154 l5 -112 -363 2 -362 3 -18 57 c-21 67 -51 118 -104 176 l-39 43 39 40
c65 68 188 121 259 113 22 -2 66 -7 98 -10z m-1182 -90 c64 -24 199 -24 277 0
62 19 62 19 144 -3 131 -35 223 -84 299 -160 98 -98 109 -135 109 -356 l0
-175 -690 0 -690 0 0 175 c0 221 11 258 109 356 73 73 164 123 286 158 87 24
102 25 156 5z"/>
<path d="M1417 3408 c-9 -7 -39 -69 -65 -138 -55 -142 -49 -137 -173 -139
-123 -2 -168 -11 -186 -37 -8 -13 -12 -32 -8 -44 4 -11 55 -61 115 -110 l107
-89 -34 -132 c-38 -142 -37 -174 3 -189 30 -12 47 -4 176 81 49 32 94 59 98
59 4 0 61 -34 126 -75 118 -76 136 -81 172 -53 18 16 15 53 -18 173 -16 61
-30 117 -30 126 0 8 41 48 92 89 138 113 146 125 110 170 -16 19 -31 22 -155
29 -76 5 -142 12 -146 17 -4 5 -27 61 -50 124 -53 141 -85 174 -134 138z m63
-290 c27 -78 48 -98 109 -99 25 -1 59 -4 76 -8 l30 -6 -58 -45 c-32 -25 -61
-56 -64 -70 -4 -14 1 -54 10 -89 10 -35 15 -66 13 -68 -2 -3 -28 11 -58 29
-29 19 -61 37 -71 41 -20 7 -58 -9 -124 -55 -24 -16 -43 -25 -43 -21 0 4 9 39
19 77 10 38 16 78 13 88 -2 10 -32 40 -65 66 l-60 47 29 6 c16 4 51 7 78 8 62
1 78 16 107 97 13 35 26 64 30 64 3 0 16 -28 29 -62z"/>
<path d="M3637 3408 c-10 -7 -39 -69 -67 -138 -56 -143 -49 -137 -180 -140
-126 -2 -162 -10 -179 -42 -22 -38 -7 -59 110 -152 54 -44 99 -86 99 -95 0 -9
-14 -65 -30 -126 -33 -120 -36 -157 -17 -173 35 -28 53 -23 171 53 65 41 122
75 126 75 4 0 49 -27 98 -59 129 -85 146 -93 176 -81 14 5 28 20 32 34 5 22
-15 115 -55 253 -9 32 -9 33 99 122 60 49 111 99 115 111 4 12 1 30 -8 44 -18
26 -63 35 -186 37 -124 2 -118 -3 -173 139 -47 122 -65 150 -98 150 -9 0 -24
-6 -33 -12z m62 -292 c29 -81 45 -96 107 -97 27 -1 62 -4 78 -8 l29 -6 -60
-47 c-33 -26 -63 -56 -65 -66 -3 -10 3 -50 13 -88 10 -38 19 -73 19 -77 0 -4
-19 5 -42 21 -67 45 -105 62 -125 55 -10 -3 -44 -24 -75 -45 -32 -21 -58 -35
-58 -31 0 4 7 37 17 73 9 36 13 77 10 90 -3 14 -32 45 -64 70 l-58 45 30 6
c17 4 53 7 81 8 61 1 73 13 104 99 13 34 26 62 29 62 4 0 17 -29 30 -64z"/>
<path d="M365 3379 c-48 -13 -112 -74 -129 -122 -21 -57 -177 -1039 -183
-1152 -6 -117 14 -214 68 -325 41 -83 50 -94 484 -530 243 -245 451 -461 460
-480 10 -19 20 -66 23 -105 l4 -70 -35 -17 c-19 -9 -48 -34 -64 -54 -27 -37
-28 -40 -31 -187 -2 -82 -1 -160 2 -173 9 -34 65 -95 103 -110 42 -18 1194
-21 1240 -3 34 13 80 55 99 91 19 37 20 305 0 351 -12 30 -46 65 -89 92 -14 9
-17 56 -25 335 -8 287 -12 333 -31 390 -33 104 -88 184 -216 318 -216 225
-301 286 -465 331 l-74 21 -266 264 c-284 284 -308 302 -413 313 -37 4 -69 -1
-112 -15 -33 -11 -62 -19 -64 -16 -3 2 1 156 8 342 8 227 9 348 2 371 -34 112
-171 177 -296 140z m142 -129 c18 -11 35 -30 38 -43 4 -13 -1 -198 -9 -410 -9
-213 -16 -431 -16 -485 0 -167 -6 -158 299 -464 236 -238 269 -268 297 -268
37 0 57 19 57 56 0 21 -52 78 -256 283 -141 141 -261 269 -267 284 -17 46 -12
118 10 155 38 62 126 94 197 72 29 -10 104 -78 313 -285 l275 -273 95 -27
c148 -42 177 -62 366 -250 149 -148 175 -180 207 -245 21 -41 41 -100 46 -130
5 -30 12 -182 16 -337 l6 -283 -484 0 -484 0 -5 78 c-9 145 -4 140 -507 647
-374 377 -451 459 -474 507 -37 77 -57 160 -57 234 0 53 160 1096 176 1146 17
54 102 74 161 38z m1771 -2786 c21 -14 22 -22 22 -141 0 -104 -3 -130 -17
-145 -15 -17 -47 -18 -591 -18 -521 0 -577 2 -594 17 -16 14 -18 33 -18 144 0
121 1 129 22 143 20 14 92 16 588 16 496 0 568 -2 588 -16z"/>
<path d="M4574 3366 c-55 -26 -99 -74 -115 -127 -7 -23 -6 -144 2 -371 7 -186
11 -340 8 -342 -2 -3 -31 5 -64 16 -43 14 -75 19 -112 15 -104 -11 -129 -29
-413 -312 l-266 -265 -74 -21 c-164 -45 -249 -106 -465 -331 -128 -134 -183
-214 -216 -318 -19 -57 -22 -103 -31 -390 -7 -281 -11 -326 -25 -335 -42 -27
-77 -62 -89 -92 -20 -46 -19 -314 0 -351 19 -36 65 -78 99 -91 46 -18 1198
-15 1240 3 38 15 94 76 103 110 3 13 4 91 2 173 -3 147 -4 150 -31 187 -16 20
-45 45 -64 54 l-35 17 4 70 c3 39 13 86 23 105 9 19 217 235 460 480 434 436
443 447 484 530 54 111 74 208 68 325 -6 113 -162 1095 -183 1152 -42 114
-188 166 -310 109z m169 -116 c14 -11 28 -28 31 -38 4 -10 45 -258 92 -552 74
-462 85 -547 81 -620 -6 -90 -31 -174 -75 -245 -13 -22 -221 -238 -462 -480
-493 -496 -489 -491 -498 -637 l-5 -78 -483 0 -484 0 6 283 c3 155 10 307 15
337 5 30 25 89 46 130 32 65 58 97 207 245 189 188 218 208 366 250 l95 27
275 273 c294 291 310 303 390 290 107 -18 168 -128 130 -232 -6 -15 -126 -143
-267 -284 -204 -205 -255 -262 -255 -283 0 -37 19 -56 56 -56 28 0 61 30 297
268 305 306 299 297 299 464 0 54 -7 272 -16 485 -8 212 -13 397 -9 410 13 55
118 82 168 43z m-725 -2786 c21 -14 22 -22 22 -141 0 -104 -3 -130 -17 -145
-15 -17 -47 -18 -591 -18 -521 0 -577 2 -594 17 -16 14 -18 33 -18 144 0 121
1 129 22 143 20 14 92 16 588 16 496 0 568 -2 588 -16z"/>
<path d="M2527 3278 c-9 -7 -46 -89 -82 -183 -36 -93 -67 -170 -68 -171 -1 -2
-85 -8 -187 -14 -201 -12 -220 -18 -220 -71 0 -24 21 -45 145 -146 80 -64 145
-121 145 -127 0 -5 -21 -87 -46 -182 -45 -166 -46 -175 -30 -199 29 -43 60
-34 220 70 80 52 151 95 157 95 6 0 76 -43 157 -95 159 -103 190 -113 218 -70
16 24 14 33 -31 206 -42 154 -46 182 -34 193 8 7 74 61 147 120 112 91 132
111 132 135 0 52 -19 58 -220 71 -102 7 -186 13 -187 14 -1 1 -32 78 -68 171
-63 165 -81 195 -115 195 -9 0 -24 -6 -33 -12z m82 -343 c25 -67 51 -120 62
-125 10 -6 46 -10 81 -11 35 -1 89 -4 120 -8 l57 -6 -94 -75 c-54 -43 -98 -85
-101 -98 -4 -14 6 -72 24 -139 19 -71 26 -113 19 -110 -7 2 -55 32 -107 66
-52 33 -101 61 -110 61 -8 0 -64 -32 -123 -70 -71 -46 -107 -64 -103 -53 34
117 58 225 52 244 -3 14 -48 57 -100 99 l-93 75 56 6 c31 4 84 7 119 8 35 1
71 5 81 11 11 5 37 58 62 125 24 63 46 115 49 115 3 0 25 -52 49 -115z"/>
</g>
</svg>
