<svg width="72" height="80" viewBox="0 0 72 80" fill="none" xmlns="http://www.w3.org/2000/svg">
<path fill-rule="evenodd" clip-rule="evenodd" d="M42.6488 4.08241L71.1923 20.5906V21.1508L61.8392 37.3789L42.6488 4.08241ZM63.9262 41L71.1923 28.3929V53.6071L63.9262 41ZM61.8392 44.6211L71.1923 60.8492V61.4094L42.6488 77.9176L61.8392 44.6211ZM59.7522 41L37.7109 79.243V33.5274H55.4454L59.7522 41ZM16.3616 33.5274H34.0961V79.243L12.0548 41L16.3616 33.5274ZM9.96785 44.6211L29.1583 77.9176L0.614786 61.4094V60.8492L9.96785 44.6211ZM7.88085 41L0.614786 53.6071V28.3929L7.88085 41ZM9.96785 37.3789L0.614786 21.1508V20.5906L29.1583 4.08241L9.96785 37.3789ZM18.4486 29.9064L35.4192 0.461341L35.9035 0.181249L36.3878 0.461341L53.3584 29.9064H18.4486Z" fill="white"/>
</svg>
